<svg width="180" height="180" viewBox="0 0 180 180" fill="none" xmlns="http://www.w3.org/2000/svg">
<g clip-path="url(#clip0_1_75)">
<g clip-path="url(#clip1_1_75)">
<path d="M90.4287 179.997C86.4652 179.997 82.7409 178.477 79.9403 175.717L4.42738 101.223C1.55686 98.3895 -0.0182413 94.5879 0.000159417 90.5213C0.0185602 86.4842 1.60102 82.6642 4.4605 79.7643L78.5971 4.61565C81.5302 1.64209 85.4237 0.00442505 89.5639 0.00442505C93.5274 0.00442505 97.2517 1.52801 100.056 4.28812L175.573 78.7817C178.447 81.6154 180.018 85.417 180 89.4836C179.981 93.517 178.395 97.337 175.536 100.237L101.399 175.386C98.4662 178.359 94.5689 179.997 90.4287 179.997ZM89.5639 7.36104C87.411 7.36104 85.3722 8.21852 83.8339 9.7789L9.70103 84.9312C8.20321 86.4511 7.37149 88.4494 7.36045 90.5508C7.35309 92.6227 8.14433 94.5511 9.5943 95.9827L85.1109 170.476C88.0366 173.361 93.1778 173.236 96.1587 170.219L170.295 95.07C171.797 93.5464 172.632 91.5518 172.64 89.4504C172.651 87.3785 171.856 85.4538 170.406 84.0185L94.8854 9.52497C93.4685 8.13019 91.5806 7.36104 89.5639 7.36104Z" fill="url(#paint0_linear_1_75)"/>
</g>
<g clip-path="url(#clip2_1_75)">
<path d="M31.4754 119.166C30.9723 119.113 30.5894 118.888 30.3266 118.49C30.0638 118.092 29.9587 117.657 30.0112 117.184C30.1464 116.365 30.3979 115.614 30.7658 114.931C31.1338 114.24 31.4041 113.722 31.5768 113.377C31.7495 113.039 31.9297 112.656 32.1174 112.228L33.6154 108.748L49.8904 60.0013L67.3931 93.8241L84.3777 60.0013L104.696 118.569H83.4316L73.6103 88.3164L58.4052 119.999L42.4118 91.4813L36.8591 108.793C35.9881 110.715 35.3686 112.352 35.0007 113.703C34.6328 115.047 34.3287 116.087 34.0884 116.823C33.5628 118.49 32.6918 119.271 31.4754 119.166ZM148.374 109.187C149.455 109.187 149.996 109.795 149.996 111.011C149.996 112.01 149.23 113.012 147.698 114.019C144.852 115.888 142.453 117.116 140.501 117.702C136.829 118.783 132.974 119.323 128.934 119.323C124.894 119.323 121.009 118.603 117.277 117.161C113.538 115.727 110.35 113.714 107.715 111.124C102.196 105.688 99.4363 98.6671 99.4363 90.0622C99.4363 85.9174 100.213 82.1068 101.768 78.6303C103.33 75.1613 105.481 72.1878 108.221 69.71C114.033 64.4539 121.335 61.8259 130.128 61.8259C135.061 61.8259 139.401 62.6706 143.148 64.3601C147.135 66.1321 149.129 67.6376 149.129 68.8765C149.129 69.3796 148.963 69.8151 148.633 70.183C148.303 70.551 147.927 70.7349 147.507 70.7349C146.658 70.7349 145.892 70.3595 145.209 69.6086C144.526 68.8577 143.595 68.1782 142.416 67.57C141.245 66.9618 139.957 66.4325 138.553 65.9819C135.707 65.1109 133.116 64.6754 130.781 64.6754C128.439 64.6754 126.501 64.8331 124.97 65.1485V115.911C126.824 116.234 128.461 116.395 129.88 116.395C131.307 116.395 132.76 116.301 134.239 116.114C135.718 115.926 137.171 115.622 138.598 115.201C141.789 114.255 144.192 112.859 145.806 111.011C146.384 110.321 146.846 109.844 147.191 109.581C147.529 109.318 147.924 109.187 148.374 109.187Z" fill="url(#paint1_linear_1_75)"/>
</g>
</g>
<defs>
<linearGradient id="paint0_linear_1_75" x1="90" y1="0.00442505" x2="90" y2="179.997" gradientUnits="userSpaceOnUse">
<stop stop-color="#FB2C36"/>
<stop offset="1" stop-color="#920D14"/>
</linearGradient>
<linearGradient id="paint1_linear_1_75" x1="89.997" y1="60.0013" x2="89.997" y2="119.999" gradientUnits="userSpaceOnUse">
<stop stop-color="#FB2C36"/>
<stop offset="1" stop-color="#920D14"/>
</linearGradient>
<clipPath id="clip0_1_75">
<rect width="180" height="180" fill="white"/>
</clipPath>
<clipPath id="clip1_1_75">
<rect width="180" height="179.993" fill="white" transform="translate(0 0.00354004)"/>
</clipPath>
<clipPath id="clip2_1_75">
<rect width="120" height="119.995" fill="white" transform="translate(30 30.0024)"/>
</clipPath>
</defs>
</svg>
